<svg xmlns="http://www.w3.org/2000/svg" viewBox="0 0 256 256">
  <rect width="256" height="256" fill="#0a0a0a"/>
  <path d="M128 20 L220 80 L220 176 L128 236 L36 176 L36 80 Z" fill="#1a1a1a" stroke="#00ff88" stroke-width="3"/>
  <path d="M128 20 L220 80 L128 128 Z" fill="#2a2a2a"/>
  <path d="M220 80 L220 176 L128 128 Z" fill="#252525"/>
  <path d="M220 176 L128 236 L128 128 Z" fill="#1f1f1f"/>
  <path d="M128 236 L36 176 L128 128 Z" fill="#1a1a1a"/>
  <path d="M36 176 L36 80 L128 128 Z" fill="#222222"/>
  <path d="M36 80 L128 20 L128 128 Z" fill="#282828"/>
  <line x1="128" y1="20" x2="128" y2="128" stroke="#00ff88" stroke-width="2"/>
  <line x1="220" y1="80" x2="128" y2="128" stroke="#00ff88" stroke-width="2"/>
  <line x1="220" y1="176" x2="128" y2="128" stroke="#00ff88" stroke-width="2"/>
  <line x1="128" y1="236" x2="128" y2="128" stroke="#00ff88" stroke-width="2"/>
  <line x1="36" y1="176" x2="128" y2="128" stroke="#00ff88" stroke-width="2"/>
  <line x1="36" y1="80" x2="128" y2="128" stroke="#00ff88" stroke-width="2"/>
  <text x="128" y="140" font-family="Arial, sans-serif" font-size="48" font-weight="bold" fill="#00ff88" text-anchor="middle">20</text>
</svg>